<svg width="196" height="30" viewBox="0 0 196 30" fill="none" xmlns="http://www.w3.org/2000/svg">
<g clip-path="url(#clip0_1015_5982)">
<path d="M41.5075 1.1261V10.4103C41.5075 11.0153 41.2623 11.589 40.8346 12.0115L22.8036 29.6723C22.0942 30.366 20.8998 29.8653 20.8998 28.869V18.7451C20.8998 18.0775 20.1018 17.7437 19.6271 18.2079L11.334 26.3342C10.6246 27.0279 9.42498 26.5271 9.42498 25.5309V17.9732C9.42498 16.9874 8.24621 16.4867 7.53164 17.1595L7.51599 17.1752L1.90377 22.6779C1.19442 23.3716 0 22.8708 0 21.8746V12.5957C0 11.9907 0.245143 11.4169 0.67284 10.9944L6.18074 5.59606C6.8901 4.90235 8.08452 5.40307 8.08452 6.39929V13.957C8.08452 14.9428 9.26329 15.4435 9.97786 14.7707L9.99351 14.755L20.5399 4.42771C21.2492 3.73401 22.4437 4.23473 22.4437 5.23095V15.3444C22.4437 16.0016 23.2417 16.3406 23.7163 15.8764L39.6037 0.328081C40.3131 -0.365623 41.5075 0.135096 41.5075 1.13132V1.1261Z" fill="#122750"/>
<path d="M55.5432 25.0665L49.957 8.80882H54.3227L57.8694 20.4349L61.7448 8.80882H66.0478L69.9232 20.4349L73.4699 8.80882H77.8356L72.2494 25.0665H67.5552L63.9093 13.67L60.2322 25.0665H55.538H55.5432Z" fill="#122750"/>
<path d="M92.7111 22.9958C91.0159 24.6597 88.9609 25.4942 86.5512 25.4942C84.1415 25.4942 82.0865 24.6545 80.3757 22.9802C78.6701 21.3059 77.8147 19.2822 77.8147 16.9194C77.8147 14.5567 78.6701 12.4912 80.3757 10.7908C82.0865 9.09569 84.1415 8.24551 86.5512 8.24551C88.9609 8.24551 90.9846 9.09569 92.6954 10.7908C94.401 12.486 95.2564 14.5306 95.2564 16.9194C95.2564 19.3083 94.4062 21.332 92.7111 22.9958ZM86.5512 21.6502C87.7978 21.671 88.8566 21.2277 89.7224 20.3201C90.5882 19.4126 91.0211 18.2912 91.0211 16.9507C91.0211 15.6102 90.5882 14.4628 89.7224 13.55C88.8566 12.6424 87.803 12.1991 86.5512 12.22C85.2785 12.1991 84.2145 12.6424 83.3487 13.55C82.4829 14.4576 82.0499 15.5946 82.0499 16.9507C82.0499 18.3068 82.4829 19.4074 83.3487 20.3201C84.2145 21.2277 85.2785 21.671 86.5512 21.6502Z" fill="#122750"/>
<path d="M97.1915 25.0665V8.80882H101.296V10.9421C102.564 9.27824 104.645 8.48022 107.534 8.54281V12.8772C106.856 12.5486 106.111 12.3869 105.302 12.3869C104.207 12.3869 103.268 12.825 102.475 13.7013C101.688 14.5775 101.291 15.7719 101.291 17.2793V25.0665H97.1863H97.1915Z" fill="#122750"/>
<path d="M109.48 25.0665V1.51711H113.585V14.7549H116.276L121.268 8.80882H126.426L119.625 16.6899L126.426 25.0665H121.367L116.276 18.6615H113.585V25.0665H109.48Z" fill="#122750"/>
<path d="M132.732 25.0665L127.146 8.80882H131.512L135.058 20.4349L138.934 8.80882H143.237L147.112 20.4349L150.659 8.80882H155.025L149.438 25.0665H144.744L141.098 13.67L137.421 25.0665H132.727H132.732Z" fill="#122750"/>
<path d="M160.292 5.42375C159.833 5.88275 159.286 6.11224 158.649 6.11224C158.013 6.11224 157.465 5.88275 157.006 5.42375C156.547 4.96476 156.318 4.40667 156.318 3.74948C156.318 3.16009 156.547 2.63851 157.006 2.18995C157.465 1.74139 158.013 1.51711 158.649 1.51711C159.286 1.51711 159.802 1.74139 160.277 2.18995C160.746 2.63851 160.981 3.16009 160.981 3.74948C160.981 4.40667 160.751 4.96476 160.292 5.42375ZM156.646 25.0665V8.80882H160.652V25.0665H156.646Z" fill="#122750"/>
<path d="M162.593 25.0665V21.6189L172.117 12.3556H163.052V8.80882H177.703V12.2565L168.142 21.5198H178.031V25.0665H162.593Z" fill="#122750"/>
<path d="M187.754 8.31332C190.163 8.31332 192.13 9.07483 193.648 10.5979C195.171 12.1209 195.953 14.1811 195.995 16.789C195.995 17.3158 195.984 17.7331 195.963 18.0356H183.023C183.221 19.3291 183.758 20.3306 184.635 21.0399C185.511 21.7493 186.549 22.1092 187.754 22.1092C189.678 22.1092 191.16 21.4415 192.187 20.1063L194.717 22.2083C193.95 23.2358 192.944 24.0442 191.697 24.6232C190.45 25.2021 189.146 25.4942 187.79 25.4942C185.36 25.4942 183.326 24.6701 181.683 23.0167C180.04 21.3633 179.221 19.3448 179.221 16.9559C179.221 14.5671 180.034 12.4495 181.667 10.7961C183.299 9.14264 185.328 8.31854 187.759 8.31854L187.754 8.31332ZM187.785 11.5002C186.601 11.5002 185.594 11.8444 184.765 12.5329C183.931 13.2214 183.373 14.1707 183.091 15.3755H192.323C192.015 14.129 191.473 13.1692 190.696 12.5016C189.918 11.834 188.948 11.5002 187.79 11.5002H187.785Z" fill="#122750"/>
</g>
<defs>
<clipPath id="clip0_1015_5982">
<rect width="196" height="29.991" fill="white" transform="translate(0 0.0045166)"/>
</clipPath>
</defs>
</svg>
